#tb 0: 1/25
0,          0,          0,        1,   608256, 0x65574c43
0,          1,          1,        1,   608256, 0x5e5a1aa4
0,          2,          2,        1,   608256, 0xa9a5cbc5
0,          3,          3,        1,   608256, 0x4e462c02
0,          4,          4,        1,   608256, 0xf8215f14
0,          5,          5,        1,   608256, 0x4f332ccd
0,          6,          6,        1,   608256, 0x5dac18a3
0,          7,          7,        1,   608256, 0x81196f38
0,          8,          8,        1,   608256, 0xd4cb4ffc
0,          9,          9,        1,   608256, 0x839af1a4
0,         10,         10,        1,   608256, 0x15ab7a99
0,         11,         11,        1,   608256, 0x7496aec8
0,         12,         12,        1,   608256, 0xfe974593
0,         13,         13,        1,   608256, 0x702a94b7
0,         14,         14,        1,   608256, 0x0f74cd7a
0,         15,         15,        1,   608256, 0x3b35b667
0,         16,         16,        1,   608256, 0x22083d70
0,         17,         17,        1,   608256, 0xab77f6e1
0,         18,         18,        1,   608256, 0x51513651
0,         19,         19,        1,   608256, 0x06ff4ef1
0,         20,         20,        1,   608256, 0xdf2ed7d3
0,         21,         21,        1,   608256, 0x3107421b
0,         22,         22,        1,   608256, 0x975823fe
0,         23,         23,        1,   608256, 0xe40d9894
0,         24,         24,        1,   608256, 0x8fb1fead
0,         25,         25,        1,   608256, 0x56e5056b
0,         26,         26,        1,   608256, 0x3346b970
0,         27,         27,        1,   608256, 0x7e3c5b82
0,         28,         28,        1,   608256, 0x6a86c482
0,         29,         29,        1,   608256, 0x3e800e13
0,         30,         30,        1,   608256, 0xd6c4589e
0,         31,         31,        1,   608256, 0xcdfa7d94
0,         32,         32,        1,   608256, 0xdc91cfce
0,         33,         33,        1,   608256, 0x8aa5fd0e
0,         34,         34,        1,   608256, 0x85c190be
0,         35,         35,        1,   608256, 0xe7563061
0,         36,         36,        1,   608256, 0x7fd501ec
0,         37,         37,        1,   608256, 0x088d0df3
0,         38,         38,        1,   608256, 0x08129a2f
0,         39,         39,        1,   608256, 0x7bed8d9c
0,         40,         40,        1,   608256, 0x16ce64c6
0,         41,         41,        1,   608256, 0x6a120a3a
0,         42,         42,        1,   608256, 0xfe0b889e
0,         43,         43,        1,   608256, 0x57f4efcd
0,         44,         44,        1,   608256, 0xc363ca91
0,         45,         45,        1,   608256, 0x92237dce
0,         46,         46,        1,   608256, 0x77bab64f
0,         47,         47,        1,   608256, 0x29118201
0,         48,         48,        1,   608256, 0x6f8e8e53
0,         49,         49,        1,   608256, 0x4a13c4a3
0,         50,         50,        1,   608256, 0x27a069a3
0,         51,         51,        1,   608256, 0x22a5ff96
0,         52,         52,        1,   608256, 0x29ad753f
0,         53,         53,        1,   608256, 0x955788a6
0,         54,         54,        1,   608256, 0xb73599c5
0,         55,         55,        1,   608256, 0x73765aca
0,         56,         56,        1,   608256, 0x39118f45
0,         57,         57,        1,   608256, 0xfb0f8b96
0,         58,         58,        1,   608256, 0xfcf71085
0,         59,         59,        1,   608256, 0xccaaca7d
0,         60,         60,        1,   608256, 0xde873299
0,         61,         61,        1,   608256, 0x5d904202
0,         62,         62,        1,   608256, 0x1e92c9b8
0,         63,         63,        1,   608256, 0xdb8ec231
0,         64,         64,        1,   608256, 0x388e2b9f
0,         65,         65,        1,   608256, 0x1d190c39
0,         66,         66,        1,   608256, 0xb6609efd
0,         67,         67,        1,   608256, 0x0c6bf1d0
0,         68,         68,        1,   608256, 0x178e0a3c
0,         69,         69,        1,   608256, 0x439509f7
0,         70,         70,        1,   608256, 0x00eb29ec
0,         71,         71,        1,   608256, 0xee45f2a0
0,         72,         72,        1,   608256, 0xae62eb8c
0,         73,         73,        1,   608256, 0x3bb7510d
0,         74,         74,        1,   608256, 0x03f08d02
0,         75,         75,        1,   608256, 0x4beffc2a
0,         76,         76,        1,   608256, 0x6071eb56
0,         77,         77,        1,   608256, 0xbcb4e4e5
0,         78,         78,        1,   608256, 0x775864aa
0,         79,         79,        1,   608256, 0x3cfa0a94
0,         80,         80,        1,   608256, 0x4652d529
0,         81,         81,        1,   608256, 0xc5be07e2
0,         82,         82,        1,   608256, 0xe7b480a2
0,         83,         83,        1,   608256, 0x83b11945
0,         84,         84,        1,   608256, 0x25ff0458
0,         85,         85,        1,   608256, 0x5a780cda
0,         86,         86,        1,   608256, 0x3448077c
0,         87,         87,        1,   608256, 0x0f9c6f09
0,         88,         88,        1,   608256, 0x05ece146
0,         89,         89,        1,   608256, 0x3b02b504
0,         90,         90,        1,   608256, 0xf3a8e2a6
0,         91,         91,        1,   608256, 0xd4544847
0,         92,         92,        1,   608256, 0x49bd2a3f
0,         93,         93,        1,   608256, 0x22a42082
0,         94,         94,        1,   608256, 0x8d8d1923
0,         95,         95,        1,   608256, 0x2ba6877f
0,         96,         96,        1,   608256, 0x494d481b
0,         97,         97,        1,   608256, 0x28c99c35
0,         98,         98,        1,   608256, 0x80128077
0,         99,         99,        1,   608256, 0x887c2fb0
